<mxfile host="app.diagrams.net" agent="Mozilla/5.0 (Macintosh; Intel Mac OS X 10_15_7) AppleWebKit/537.36 (KHTML, like Gecko) Chrome/135.0.0.0 Safari/537.36" version="27.0.5">
  <diagram name="Page-1" id="dgKfHVLs2dfAS0LjMVGZ">
    <mxGraphModel dx="1205" dy="784" grid="1" gridSize="10" guides="1" tooltips="1" connect="1" arrows="1" fold="1" page="1" pageScale="1" pageWidth="850" pageHeight="1100" math="0" shadow="0">
      <root>
        <mxCell id="0" />
        <mxCell id="1" parent="0" />
        <mxCell id="UEqxe5ACNQiHhb535YgH-1" value="&lt;h1&gt;Autocomplete&lt;/h1&gt;" style="text;html=1;align=center;verticalAlign=middle;resizable=0;points=[];autosize=1;strokeColor=none;fillColor=none;" vertex="1" parent="1">
          <mxGeometry x="360" y="10" width="180" height="70" as="geometry" />
        </mxCell>
        <mxCell id="UEqxe5ACNQiHhb535YgH-2" value="&lt;h2&gt;Functional Requirements&lt;/h2&gt;&lt;div&gt;&lt;ol&gt;&lt;li style=&quot;text-align: left;&quot;&gt;Display search results for custom query&lt;/li&gt;&lt;li style=&quot;text-align: left;&quot;&gt;Allow action on selected item&lt;/li&gt;&lt;li style=&quot;text-align: left;&quot;&gt;Support custom styling&lt;/li&gt;&lt;/ol&gt;&lt;/div&gt;" style="text;html=1;align=center;verticalAlign=middle;resizable=0;points=[];autosize=1;strokeColor=none;fillColor=none;" vertex="1" parent="1">
          <mxGeometry x="40" y="58" width="270" height="120" as="geometry" />
        </mxCell>
        <mxCell id="UEqxe5ACNQiHhb535YgH-3" value="&lt;h2&gt;Non-Functional Requirements&lt;/h2&gt;&lt;div&gt;&lt;ul&gt;&lt;li style=&quot;text-align: left;&quot;&gt;generic component that can be used by other websites&lt;/li&gt;&lt;li style=&quot;text-align: left;&quot;&gt;debounce query&lt;/li&gt;&lt;li style=&quot;text-align: left;&quot;&gt;cache locally&lt;/li&gt;&lt;/ul&gt;&lt;/div&gt;" style="text;html=1;align=center;verticalAlign=middle;resizable=0;points=[];autosize=1;strokeColor=none;fillColor=none;" vertex="1" parent="1">
          <mxGeometry x="490" y="58" width="350" height="120" as="geometry" />
        </mxCell>
        <mxCell id="UEqxe5ACNQiHhb535YgH-4" value="&lt;h2&gt;Out of Scope&lt;/h2&gt;&lt;div&gt;&lt;ul&gt;&lt;li style=&quot;text-align: left;&quot;&gt;media/images in results&lt;/li&gt;&lt;li style=&quot;text-align: left;&quot;&gt;fuzzy search (can be done on backend)&lt;/li&gt;&lt;/ul&gt;&lt;/div&gt;" style="text;html=1;align=center;verticalAlign=middle;resizable=0;points=[];autosize=1;strokeColor=none;fillColor=none;" vertex="1" parent="1">
          <mxGeometry x="300" y="100" width="270" height="110" as="geometry" />
        </mxCell>
        <mxCell id="UEqxe5ACNQiHhb535YgH-5" value="&lt;h2&gt;High Level Design/Architecture&lt;/h2&gt;&lt;div&gt;&lt;br&gt;&lt;/div&gt;" style="text;html=1;align=center;verticalAlign=middle;resizable=0;points=[];autosize=1;strokeColor=none;fillColor=none;" vertex="1" parent="1">
          <mxGeometry x="300" y="200" width="290" height="80" as="geometry" />
        </mxCell>
        <mxCell id="UEqxe5ACNQiHhb535YgH-6" value="Autocomplete Component" style="swimlane;whiteSpace=wrap;html=1;" vertex="1" parent="1">
          <mxGeometry x="80" y="270" width="330" height="210" as="geometry" />
        </mxCell>
        <mxCell id="UEqxe5ACNQiHhb535YgH-11" value="View&lt;div&gt;&lt;br&gt;&lt;/div&gt;&lt;div&gt;&lt;br&gt;&lt;/div&gt;&lt;div&gt;&lt;br&gt;&lt;/div&gt;" style="rounded=0;whiteSpace=wrap;html=1;" vertex="1" parent="UEqxe5ACNQiHhb535YgH-6">
          <mxGeometry x="20" y="40" width="290" height="80" as="geometry" />
        </mxCell>
        <mxCell id="UEqxe5ACNQiHhb535YgH-7" value="Results UI" style="rounded=1;whiteSpace=wrap;html=1;" vertex="1" parent="UEqxe5ACNQiHhb535YgH-6">
          <mxGeometry x="30" y="70" width="120" height="40" as="geometry" />
        </mxCell>
        <mxCell id="UEqxe5ACNQiHhb535YgH-14" value="" style="edgeStyle=orthogonalEdgeStyle;rounded=0;orthogonalLoop=1;jettySize=auto;html=1;" edge="1" parent="UEqxe5ACNQiHhb535YgH-6" source="UEqxe5ACNQiHhb535YgH-10" target="UEqxe5ACNQiHhb535YgH-12">
          <mxGeometry relative="1" as="geometry" />
        </mxCell>
        <mxCell id="UEqxe5ACNQiHhb535YgH-10" value="Input UI" style="rounded=1;whiteSpace=wrap;html=1;" vertex="1" parent="UEqxe5ACNQiHhb535YgH-6">
          <mxGeometry x="180" y="70" width="120" height="40" as="geometry" />
        </mxCell>
        <mxCell id="UEqxe5ACNQiHhb535YgH-16" style="edgeStyle=orthogonalEdgeStyle;rounded=0;orthogonalLoop=1;jettySize=auto;html=1;" edge="1" parent="UEqxe5ACNQiHhb535YgH-6" source="UEqxe5ACNQiHhb535YgH-12" target="UEqxe5ACNQiHhb535YgH-7">
          <mxGeometry relative="1" as="geometry">
            <Array as="points">
              <mxPoint x="210" y="140" />
              <mxPoint x="90" y="140" />
            </Array>
          </mxGeometry>
        </mxCell>
        <mxCell id="UEqxe5ACNQiHhb535YgH-17" value="" style="edgeStyle=orthogonalEdgeStyle;rounded=0;orthogonalLoop=1;jettySize=auto;html=1;" edge="1" parent="UEqxe5ACNQiHhb535YgH-6" source="UEqxe5ACNQiHhb535YgH-12" target="UEqxe5ACNQiHhb535YgH-13">
          <mxGeometry relative="1" as="geometry" />
        </mxCell>
        <mxCell id="UEqxe5ACNQiHhb535YgH-12" value="Controller" style="rounded=1;whiteSpace=wrap;html=1;" vertex="1" parent="UEqxe5ACNQiHhb535YgH-6">
          <mxGeometry x="190" y="150" width="110" height="40" as="geometry" />
        </mxCell>
        <mxCell id="UEqxe5ACNQiHhb535YgH-19" style="edgeStyle=orthogonalEdgeStyle;rounded=0;orthogonalLoop=1;jettySize=auto;html=1;" edge="1" parent="UEqxe5ACNQiHhb535YgH-6" source="UEqxe5ACNQiHhb535YgH-13">
          <mxGeometry relative="1" as="geometry">
            <mxPoint x="190" y="180" as="targetPoint" />
            <Array as="points">
              <mxPoint x="190" y="180" />
            </Array>
          </mxGeometry>
        </mxCell>
        <mxCell id="UEqxe5ACNQiHhb535YgH-13" value="Cache" style="rounded=1;whiteSpace=wrap;html=1;" vertex="1" parent="UEqxe5ACNQiHhb535YgH-6">
          <mxGeometry x="30" y="150" width="110" height="40" as="geometry" />
        </mxCell>
        <mxCell id="UEqxe5ACNQiHhb535YgH-15" value="query" style="text;html=1;align=center;verticalAlign=middle;resizable=0;points=[];autosize=1;strokeColor=none;fillColor=none;" vertex="1" parent="UEqxe5ACNQiHhb535YgH-6">
          <mxGeometry x="250" y="118" width="50" height="30" as="geometry" />
        </mxCell>
        <mxCell id="UEqxe5ACNQiHhb535YgH-18" value="query" style="text;html=1;align=center;verticalAlign=middle;resizable=0;points=[];autosize=1;strokeColor=none;fillColor=none;" vertex="1" parent="UEqxe5ACNQiHhb535YgH-6">
          <mxGeometry x="140" y="140" width="50" height="30" as="geometry" />
        </mxCell>
        <mxCell id="UEqxe5ACNQiHhb535YgH-20" value="results" style="text;html=1;align=center;verticalAlign=middle;resizable=0;points=[];autosize=1;strokeColor=none;fillColor=none;" vertex="1" parent="UEqxe5ACNQiHhb535YgH-6">
          <mxGeometry x="135" y="180" width="60" height="30" as="geometry" />
        </mxCell>
        <mxCell id="UEqxe5ACNQiHhb535YgH-22" style="edgeStyle=orthogonalEdgeStyle;rounded=0;orthogonalLoop=1;jettySize=auto;html=1;entryX=0;entryY=0;entryDx=10;entryDy=70;entryPerimeter=0;" edge="1" parent="1" source="UEqxe5ACNQiHhb535YgH-12" target="UEqxe5ACNQiHhb535YgH-27">
          <mxGeometry relative="1" as="geometry">
            <mxPoint x="547" y="365.5500000000002" as="targetPoint" />
          </mxGeometry>
        </mxCell>
        <mxCell id="UEqxe5ACNQiHhb535YgH-23" value="query" style="text;html=1;align=center;verticalAlign=middle;resizable=0;points=[];autosize=1;strokeColor=none;fillColor=none;" vertex="1" parent="1">
          <mxGeometry x="495" y="440" width="50" height="30" as="geometry" />
        </mxCell>
        <mxCell id="UEqxe5ACNQiHhb535YgH-24" value="results" style="text;html=1;align=center;verticalAlign=middle;resizable=0;points=[];autosize=1;strokeColor=none;fillColor=none;" vertex="1" parent="1">
          <mxGeometry x="180" y="388" width="60" height="30" as="geometry" />
        </mxCell>
        <mxCell id="UEqxe5ACNQiHhb535YgH-26" value="results" style="text;html=1;align=center;verticalAlign=middle;resizable=0;points=[];autosize=1;strokeColor=none;fillColor=none;" vertex="1" parent="1">
          <mxGeometry x="450" y="270" width="60" height="30" as="geometry" />
        </mxCell>
        <mxCell id="UEqxe5ACNQiHhb535YgH-27" value="Server" style="shape=cube;whiteSpace=wrap;html=1;boundedLbl=1;backgroundOutline=1;darkOpacity=0.05;darkOpacity2=0.1;" vertex="1" parent="1">
          <mxGeometry x="520" y="270" width="120" height="80" as="geometry" />
        </mxCell>
        <mxCell id="UEqxe5ACNQiHhb535YgH-25" style="edgeStyle=orthogonalEdgeStyle;rounded=0;orthogonalLoop=1;jettySize=auto;html=1;exitX=0;exitY=0;exitDx=0;exitDy=30;exitPerimeter=0;entryX=1;entryY=0.25;entryDx=0;entryDy=0;" edge="1" parent="1" source="UEqxe5ACNQiHhb535YgH-27" target="UEqxe5ACNQiHhb535YgH-12">
          <mxGeometry relative="1" as="geometry">
            <mxPoint x="390" y="440" as="targetPoint" />
            <mxPoint x="576.04" y="390.48" as="sourcePoint" />
          </mxGeometry>
        </mxCell>
        <mxCell id="UEqxe5ACNQiHhb535YgH-28" value="&lt;h2&gt;Data Model&lt;/h2&gt;&lt;h3 style=&quot;text-align: left;&quot;&gt;Controller:&lt;/h3&gt;&lt;div style=&quot;&quot;&gt;&lt;ul&gt;&lt;li style=&quot;text-align: left;&quot;&gt;initial props&lt;/li&gt;&lt;li style=&quot;text-align: left;&quot;&gt;search string&lt;/li&gt;&lt;/ul&gt;&lt;h3 style=&quot;text-align: left;&quot;&gt;Cache:&lt;/h3&gt;&lt;div&gt;&lt;ul&gt;&lt;li style=&quot;text-align: left;&quot;&gt;initial results (optional)&lt;/li&gt;&lt;li style=&quot;text-align: left;&quot;&gt;cached results&lt;/li&gt;&lt;/ul&gt;&lt;/div&gt;&lt;/div&gt;" style="text;html=1;align=center;verticalAlign=middle;resizable=0;points=[];autosize=1;strokeColor=none;fillColor=none;" vertex="1" parent="1">
          <mxGeometry x="630" y="310" width="180" height="210" as="geometry" />
        </mxCell>
        <mxCell id="UEqxe5ACNQiHhb535YgH-29" value="&lt;h2&gt;API&lt;/h2&gt;" style="text;html=1;align=center;verticalAlign=middle;resizable=0;points=[];autosize=1;strokeColor=none;fillColor=none;" vertex="1" parent="1">
          <mxGeometry x="420" y="480" width="50" height="60" as="geometry" />
        </mxCell>
        <mxCell id="UEqxe5ACNQiHhb535YgH-30" value="&lt;h3&gt;Autocomplete&amp;nbsp;&lt;/h3&gt;&lt;div&gt;&lt;ul&gt;&lt;li style=&quot;text-align: left;&quot;&gt;&lt;span style=&quot;background-color: transparent; color: light-dark(rgb(0, 0, 0), rgb(255, 255, 255));&quot;&gt;number of results&lt;/span&gt;&lt;/li&gt;&lt;li style=&quot;text-align: left;&quot;&gt;&lt;span style=&quot;background-color: transparent; color: light-dark(rgb(0, 0, 0), rgb(255, 255, 255));&quot;&gt;callback to fetch suggestions&lt;/span&gt;&lt;/li&gt;&lt;li style=&quot;text-align: left;&quot;&gt;&lt;span style=&quot;background-color: transparent; color: light-dark(rgb(0, 0, 0), rgb(255, 255, 255));&quot;&gt;hooks for event listeners (select, focus...)&lt;/span&gt;&lt;/li&gt;&lt;li style=&quot;text-align: left;&quot;&gt;&lt;span style=&quot;background-color: transparent; color: light-dark(rgb(0, 0, 0), rgb(255, 255, 255));&quot;&gt;min query length (default 3)&lt;/span&gt;&lt;/li&gt;&lt;li style=&quot;text-align: left;&quot;&gt;&lt;span style=&quot;background-color: transparent; color: light-dark(rgb(0, 0, 0), rgb(255, 255, 255));&quot;&gt;...&lt;/span&gt;&lt;/li&gt;&lt;/ul&gt;&lt;/div&gt;" style="text;html=1;align=center;verticalAlign=middle;resizable=0;points=[];autosize=1;strokeColor=none;fillColor=none;" vertex="1" parent="1">
          <mxGeometry x="50" y="530" width="280" height="140" as="geometry" />
        </mxCell>
        <mxCell id="UEqxe5ACNQiHhb535YgH-36" value="&lt;pre&gt;&lt;font style=&quot;font-size: 13px;&quot;&gt;&lt;span style=&quot;color: rgb(68, 68, 68); font-family: &amp;quot;Lucida Console&amp;quot;, Courier, monospace; white-space-collapse: preserve; background-color: rgb(243, 243, 243);&quot;&gt; &amp;lt;&lt;/span&gt;&lt;span style=&quot;box-sizing: border-box; font-family: &amp;quot;Lucida Console&amp;quot;, Courier, monospace; white-space-collapse: preserve; color: rgb(136, 0, 0); font-weight: 700;&quot;&gt;Autocomplete&lt;/span&gt;&lt;span style=&quot;color: rgb(68, 68, 68); font-family: &amp;quot;Lucida Console&amp;quot;, Courier, monospace; white-space-collapse: preserve; background-color: rgb(243, 243, 243);&quot;&gt;&lt;br&gt;&lt;/span&gt;&lt;/font&gt;&lt;pre&gt;&lt;font style=&quot;font-size: 13px;&quot;&gt;&lt;span style=&quot;color: rgb(68, 68, 68); font-family: &amp;quot;Lucida Console&amp;quot;, Courier, monospace; white-space-collapse: preserve; background-color: rgb(243, 243, 243);&quot;&gt;  onChange={&lt;/span&gt;&lt;span style=&quot;box-sizing: border-box; color: rgb(68, 68, 68); font-family: &amp;quot;Lucida Console&amp;quot;, Courier, monospace; white-space-collapse: preserve;&quot;&gt;(&lt;span style=&quot;box-sizing: border-box;&quot;&gt;query&lt;/span&gt;)=&amp;gt;&lt;/span&gt;&lt;span style=&quot;color: rgb(68, 68, 68); font-family: &amp;quot;Lucida Console&amp;quot;, Courier, monospace; white-space-collapse: preserve; background-color: rgb(243, 243, 243);&quot;&gt;api.&lt;/span&gt;&lt;span style=&quot;box-sizing: border-box; font-family: &amp;quot;Lucida Console&amp;quot;, Courier, monospace; white-space-collapse: preserve; color: rgb(136, 0, 0); font-weight: 700;&quot;&gt;fetchItems&lt;/span&gt;&lt;span style=&quot;color: rgb(68, 68, 68); font-family: &amp;quot;Lucida Console&amp;quot;, Courier, monospace; white-space-collapse: preserve; background-color: rgb(243, 243, 243);&quot;&gt;(query)}&lt;br&gt;&lt;/span&gt;&lt;span style=&quot;color: rgb(68, 68, 68); font-family: &amp;quot;Lucida Console&amp;quot;, Courier, monospace; white-space-collapse: preserve; background-color: rgb(243, 243, 243);&quot;&gt;  renderItem={&lt;/span&gt;&lt;span style=&quot;box-sizing: border-box; color: rgb(68, 68, 68); font-family: &amp;quot;Lucida Console&amp;quot;, Courier, monospace; white-space-collapse: preserve;&quot;&gt;(&lt;span style=&quot;box-sizing: border-box;&quot;&gt;item&lt;/span&gt;)=&amp;gt;&lt;/span&gt;&lt;span style=&quot;box-sizing: border-box; color: rgb(68, 68, 68); font-family: &amp;quot;Lucida Console&amp;quot;, Courier, monospace; white-space-collapse: preserve;&quot;&gt;&lt;span style=&quot;box-sizing: border-box; color: rgba(68, 68, 68, 0.667);&quot;&gt;&amp;lt;&lt;span style=&quot;box-sizing: border-box; font-weight: 700;&quot;&gt;div&lt;/span&gt;&amp;gt;&lt;/span&gt;{item.label}&lt;span style=&quot;box-sizing: border-box; color: rgba(68, 68, 68, 0.667);&quot;&gt;&amp;lt;/&lt;span style=&quot;box-sizing: border-box; font-weight: 700;&quot;&gt;div&lt;/span&gt;&amp;gt;&lt;/span&gt;&lt;/span&gt;&lt;span style=&quot;color: rgb(68, 68, 68); font-family: &amp;quot;Lucida Console&amp;quot;, Courier, monospace; white-space-collapse: preserve; background-color: rgb(243, 243, 243);&quot;&gt;}&lt;br&gt;&lt;/span&gt;&lt;span style=&quot;color: rgb(68, 68, 68); font-family: &amp;quot;Lucida Console&amp;quot;, Courier, monospace; white-space-collapse: preserve; background-color: rgb(243, 243, 243);&quot;&gt;  wrapperClassName=&lt;/span&gt;&lt;span style=&quot;box-sizing: border-box; font-family: &amp;quot;Lucida Console&amp;quot;, Courier, monospace; white-space-collapse: preserve; color: rgb(136, 0, 0);&quot;&gt;&quot;...&quot;&lt;br&gt;&lt;/span&gt;&lt;span style=&quot;color: rgb(68, 68, 68); font-family: &amp;quot;Lucida Console&amp;quot;, Courier, monospace; white-space-collapse: preserve; background-color: rgb(243, 243, 243);&quot;&gt;  ...&lt;br&gt;&lt;/span&gt;&lt;span style=&quot;color: rgb(68, 68, 68); font-family: &amp;quot;Lucida Console&amp;quot;, Courier, monospace; white-space-collapse: preserve; background-color: rgb(243, 243, 243);&quot;&gt; /&amp;gt; &lt;/span&gt;&lt;/font&gt;&lt;/pre&gt;&lt;/pre&gt;" style="text;html=1;align=left;verticalAlign=middle;resizable=0;points=[];autosize=1;strokeColor=#666666;fillColor=#f5f5f5;fontColor=#333333;rounded=1;glass=0;shadow=1;" vertex="1" parent="1">
          <mxGeometry x="360" y="560" width="380" height="140" as="geometry" />
        </mxCell>
        <mxCell id="UEqxe5ACNQiHhb535YgH-38" value="&lt;h2&gt;Deep Dive&lt;/h2&gt;" style="text;html=1;align=center;verticalAlign=middle;resizable=0;points=[];autosize=1;strokeColor=none;fillColor=none;" vertex="1" parent="1">
          <mxGeometry x="385" y="780" width="110" height="60" as="geometry" />
        </mxCell>
        <mxCell id="UEqxe5ACNQiHhb535YgH-39" value="&lt;h3&gt;Network Race conditions:&lt;/h3&gt;&lt;div&gt;&lt;ul&gt;&lt;li style=&quot;text-align: left;&quot;&gt;maintain hashmap (key=query, value=result)&lt;/li&gt;&lt;/ul&gt;&lt;div style=&quot;&quot;&gt;&lt;br&gt;&lt;/div&gt;&lt;/div&gt;" style="text;html=1;align=center;verticalAlign=middle;resizable=0;points=[];autosize=1;strokeColor=none;fillColor=none;" vertex="1" parent="1">
          <mxGeometry x="30" y="820" width="300" height="100" as="geometry" />
        </mxCell>
        <mxCell id="UEqxe5ACNQiHhb535YgH-40" value="&lt;h3&gt;Failed Requests:&lt;/h3&gt;&lt;div&gt;&lt;ul&gt;&lt;li style=&quot;text-align: left;&quot;&gt;retry w/exp backoff&lt;/li&gt;&lt;/ul&gt;&lt;/div&gt;" style="text;html=1;align=center;verticalAlign=middle;resizable=0;points=[];autosize=1;strokeColor=none;fillColor=none;" vertex="1" parent="1">
          <mxGeometry x="360" y="820" width="160" height="80" as="geometry" />
        </mxCell>
        <mxCell id="UEqxe5ACNQiHhb535YgH-41" value="&lt;h3&gt;Offline Mode:&lt;/h3&gt;&lt;div&gt;&lt;ul&gt;&lt;li style=&quot;text-align: left;&quot;&gt;display UI indicator (register for offline event)&lt;/li&gt;&lt;li style=&quot;text-align: left;&quot;&gt;use cache if available&lt;/li&gt;&lt;/ul&gt;&lt;/div&gt;" style="text;html=1;align=center;verticalAlign=middle;resizable=0;points=[];autosize=1;strokeColor=none;fillColor=none;" vertex="1" parent="1">
          <mxGeometry x="520" y="820" width="300" height="100" as="geometry" />
        </mxCell>
        <mxCell id="UEqxe5ACNQiHhb535YgH-42" value="&lt;h3&gt;Cache:&lt;/h3&gt;&lt;div&gt;&lt;div style=&quot;text-align: left;&quot;&gt;&lt;span style=&quot;background-color: transparent; color: light-dark(rgb(0, 0, 0), rgb(255, 255, 255));&quot;&gt;A. Maintain a hashmap:&lt;/span&gt;&lt;/div&gt;&lt;ul&gt;&lt;li&gt;&lt;span style=&quot;background-color: transparent; color: light-dark(rgb(0, 0, 0), rgb(255, 255, 255)); text-align: left;&quot;&gt;good for short lived (lots of dups )&lt;/span&gt;&lt;/li&gt;&lt;/ul&gt;&lt;/div&gt;" style="text;html=1;align=center;verticalAlign=middle;resizable=0;points=[];autosize=1;strokeColor=none;fillColor=none;" vertex="1" parent="1">
          <mxGeometry x="70" y="920" width="240" height="110" as="geometry" />
        </mxCell>
        <mxCell id="UEqxe5ACNQiHhb535YgH-43" value="&lt;pre&gt;&lt;pre&gt;&lt;span&gt;&lt;span style=&quot;background-color: rgb(255, 255, 255); box-sizing: border-box; font-family: &amp;quot;Lucida Console&amp;quot;, Courier, monospace; color: rgba(68, 68, 68, 0.667);&quot;&gt;&lt;font style=&quot;font-size: 13px;&quot;&gt;$hashmap = { // A &lt;font style=&quot;&quot;&gt;&lt;br&gt;&lt;/font&gt;&lt;/font&gt;&lt;/span&gt;&lt;font style=&quot;font-size: 10px; background-color: light-dark(#ffffff, var(--ge-dark-color, #121212));&quot;&gt;&lt;span style=&quot;color: rgb(68, 68, 68); font-family: &amp;quot;Lucida Console&amp;quot;, Courier, monospace;&quot;&gt;  &#39;g&#39; =&amp;gt; &lt;/span&gt;&lt;span style=&quot;box-sizing: border-box; font-family: &amp;quot;Lucida Console&amp;quot;, Courier, monospace; color: rgba(68, 68, 68, 0.667);&quot;&gt;[&lt;/span&gt;&lt;span style=&quot;box-sizing: border-box; font-family: &amp;quot;Lucida Console&amp;quot;, Courier, monospace; color: rgba(68, 68, 68, 0.667);&quot;&gt;{&lt;/span&gt;&lt;span style=&quot;color: rgb(68, 68, 68); font-family: &amp;quot;Lucida Console&amp;quot;, Courier, monospace;&quot;&gt;name=&#39;Giant&#39;&lt;/span&gt;&lt;span style=&quot;box-sizing: border-box; font-family: &amp;quot;Lucida Console&amp;quot;, Courier, monospace; color: rgba(68, 68, 68, 0.667);&quot;&gt;,&lt;/span&gt;&lt;span style=&quot;color: rgb(68, 68, 68); font-family: &amp;quot;Lucida Console&amp;quot;, Courier, monospace;&quot;&gt; desc=&#39;...&#39;&lt;/span&gt;&lt;span style=&quot;box-sizing: border-box; font-family: &amp;quot;Lucida Console&amp;quot;, Courier, monospace; color: rgba(68, 68, 68, 0.667);&quot;&gt;}&lt;/span&gt;&lt;span style=&quot;box-sizing: border-box; font-family: &amp;quot;Lucida Console&amp;quot;, Courier, monospace; color: rgba(68, 68, 68, 0.667);&quot;&gt;,&lt;/span&gt;&lt;span style=&quot;color: rgb(68, 68, 68); font-family: &amp;quot;Lucida Console&amp;quot;, Courier, monospace;&quot;&gt; &lt;/span&gt;&lt;/font&gt;&lt;/span&gt;&lt;/pre&gt;&lt;pre&gt;&lt;font style=&quot;font-size: 10px; background-color: light-dark(#ffffff, var(--ge-dark-color, #121212));&quot;&gt;&lt;span style=&quot;box-sizing: border-box; font-family: &amp;quot;Lucida Console&amp;quot;, Courier, monospace; color: rgba(68, 68, 68, 0.667);&quot;&gt;          {&lt;/span&gt;&lt;span style=&quot;color: rgb(68, 68, 68); font-family: &amp;quot;Lucida Console&amp;quot;, Courier, monospace;&quot;&gt;name=&#39;Google&#39;&lt;/span&gt;&lt;span style=&quot;box-sizing: border-box; font-family: &amp;quot;Lucida Console&amp;quot;, Courier, monospace; color: rgba(68, 68, 68, 0.667);&quot;&gt;,&lt;/span&gt;&lt;span style=&quot;color: rgb(68, 68, 68); font-family: &amp;quot;Lucida Console&amp;quot;, Courier, monospace;&quot;&gt;...&lt;/span&gt;&lt;span style=&quot;box-sizing: border-box; font-family: &amp;quot;Lucida Console&amp;quot;, Courier, monospace; color: rgba(68, 68, 68, 0.667);&quot;&gt;}&lt;/span&gt;&lt;span style=&quot;color: rgb(68, 68, 68); font-family: &amp;quot;Lucida Console&amp;quot;, Courier, monospace;&quot;&gt;...&lt;/span&gt;&lt;span style=&quot;box-sizing: border-box; font-family: &amp;quot;Lucida Console&amp;quot;, Courier, monospace; color: rgba(68, 68, 68, 0.667);&quot;&gt;]&lt;/span&gt;&lt;span style=&quot;box-sizing: border-box; font-family: &amp;quot;Lucida Console&amp;quot;, Courier, monospace; color: rgba(68, 68, 68, 0.667);&quot;&gt;,&lt;br&gt;&lt;/span&gt;&lt;span style=&quot;color: rgb(68, 68, 68); font-family: &amp;quot;Lucida Console&amp;quot;, Courier, monospace;&quot;&gt;  &#39;goo&#39; =&amp;gt; &lt;/span&gt;&lt;span style=&quot;box-sizing: border-box; font-family: &amp;quot;Lucida Console&amp;quot;, Courier, monospace; color: rgba(68, 68, 68, 0.667);&quot;&gt;[&lt;/span&gt;&lt;span style=&quot;box-sizing: border-box; font-family: &amp;quot;Lucida Console&amp;quot;, Courier, monospace; color: rgba(68, 68, 68, 0.667);&quot;&gt;{&lt;/span&gt;&lt;span style=&quot;color: rgb(68, 68, 68); font-family: &amp;quot;Lucida Console&amp;quot;, Courier, monospace;&quot;&gt;name=&#39;Google&#39;&lt;/span&gt;&lt;span style=&quot;box-sizing: border-box; font-family: &amp;quot;Lucida Console&amp;quot;, Courier, monospace; color: rgba(68, 68, 68, 0.667);&quot;&gt;,&lt;/span&gt;&lt;span style=&quot;color: rgb(68, 68, 68); font-family: &amp;quot;Lucida Console&amp;quot;, Courier, monospace;&quot;&gt; ...&lt;/span&gt;&lt;span style=&quot;box-sizing: border-box; font-family: &amp;quot;Lucida Console&amp;quot;, Courier, monospace; color: rgba(68, 68, 68, 0.667);&quot;&gt;}&lt;/span&gt;&lt;span style=&quot;box-sizing: border-box; font-family: &amp;quot;Lucida Console&amp;quot;, Courier, monospace; color: rgba(68, 68, 68, 0.667);&quot;&gt;,&lt;br&gt;&lt;/span&gt;&lt;span style=&quot;color: rgb(68, 68, 68); font-family: &amp;quot;Lucida Console&amp;quot;, Courier, monospace;&quot;&gt;   ...&lt;br&gt;&lt;/span&gt;&lt;span style=&quot;box-sizing: border-box; font-family: &amp;quot;Lucida Console&amp;quot;, Courier, monospace; color: rgba(68, 68, 68, 0.667);&quot;&gt;}&lt;/span&gt;&lt;span style=&quot;color: rgb(68, 68, 68); font-family: &amp;quot;Lucida Console&amp;quot;, Courier, monospace;&quot;&gt; &lt;/span&gt;&lt;/font&gt;&lt;/pre&gt;&lt;/pre&gt;" style="text;html=1;align=left;verticalAlign=middle;resizable=0;points=[];autosize=1;strokeColor=#666666;fillColor=#f5f5f5;rounded=1;fontColor=#333333;" vertex="1" parent="1">
          <mxGeometry x="330" y="930" width="250" height="140" as="geometry" />
        </mxCell>
        <mxCell id="UEqxe5ACNQiHhb535YgH-44" value="&lt;pre&gt;&lt;div style=&quot;text-align: left;&quot;&gt;&lt;span style=&quot;background-color: rgb(243, 243, 243); color: rgb(68, 68, 68); font-family: &amp;quot;Lucida Console&amp;quot;, Courier, monospace;&quot;&gt;&lt;font&gt;// B&lt;/font&gt;&lt;/span&gt;&lt;/div&gt;&lt;div style=&quot;text-align: left;&quot;&gt;&lt;span style=&quot;background-color: rgb(243, 243, 243); color: rgb(68, 68, 68); font-family: &amp;quot;Lucida Console&amp;quot;, Courier, monospace;&quot;&gt;&lt;font&gt;$list = [ &lt;/font&gt;&lt;/span&gt;&lt;/div&gt;&lt;font style=&quot;&quot;&gt;&lt;font style=&quot;&quot;&gt;&lt;div style=&quot;text-align: left;&quot;&gt;&lt;font&gt;&lt;span style=&quot;color: rgb(68, 68, 68); font-family: &amp;quot;Lucida Console&amp;quot;, Courier, monospace; background-color: rgb(243, 243, 243);&quot;&gt;  { &lt;/span&gt;&lt;span style=&quot;background-color: transparent; box-sizing: border-box; color: rgb(68, 68, 68); font-family: &amp;quot;Lucida Console&amp;quot;, Courier, monospace;&quot;&gt;id&lt;/span&gt;&lt;span style=&quot;color: rgb(68, 68, 68); font-family: &amp;quot;Lucida Console&amp;quot;, Courier, monospace; background-color: rgb(243, 243, 243);&quot;&gt;: &lt;/span&gt;&lt;span style=&quot;background-color: transparent; box-sizing: border-box; font-family: &amp;quot;Lucida Console&amp;quot;, Courier, monospace; color: rgb(136, 0, 0);&quot;&gt;1&lt;/span&gt;&lt;span style=&quot;color: rgb(68, 68, 68); font-family: &amp;quot;Lucida Console&amp;quot;, Courier, monospace; background-color: rgb(243, 243, 243);&quot;&gt;, &lt;/span&gt;&lt;span style=&quot;background-color: transparent; box-sizing: border-box; color: rgb(68, 68, 68); font-family: &amp;quot;Lucida Console&amp;quot;, Courier, monospace;&quot;&gt;text&lt;/span&gt;&lt;span style=&quot;color: rgb(68, 68, 68); font-family: &amp;quot;Lucida Console&amp;quot;, Courier, monospace; background-color: rgb(243, 243, 243);&quot;&gt;: &lt;/span&gt;&lt;span style=&quot;background-color: transparent; box-sizing: border-box; font-family: &amp;quot;Lucida Console&amp;quot;, Courier, monospace; color: rgb(136, 0, 0);&quot;&gt;&#39;g&#39;&lt;/span&gt;&lt;span style=&quot;color: rgb(68, 68, 68); font-family: &amp;quot;Lucida Console&amp;quot;, Courier, monospace; background-color: rgb(243, 243, 243);&quot;&gt; }, &lt;/span&gt;&lt;/font&gt;&lt;/div&gt;&lt;font style=&quot;&quot;&gt;&lt;font&gt;&lt;span style=&quot;color: rgb(68, 68, 68); font-family: &amp;quot;Lucida Console&amp;quot;, Courier, monospace; white-space-collapse: preserve; background-color: rgb(243, 243, 243);&quot;&gt;&lt;div style=&quot;text-align: left;&quot;&gt;  { &lt;/div&gt;&lt;/span&gt;&lt;span style=&quot;color: rgb(68, 68, 68); font-family: &amp;quot;Lucida Console&amp;quot;, Courier, monospace; white-space-collapse: preserve; background-color: rgb(243, 243, 243);&quot;&gt;&lt;div style=&quot;text-align: left;&quot;&gt;  { &lt;span style=&quot;background-color: transparent; box-sizing: border-box;&quot;&gt;id&lt;/span&gt;: &lt;span style=&quot;background-color: transparent; box-sizing: border-box; color: rgb(136, 0, 0);&quot;&gt;2&lt;/span&gt;, &lt;span style=&quot;background-color: transparent; box-sizing: border-box;&quot;&gt;text&lt;/span&gt;: &lt;span style=&quot;background-color: transparent; box-sizing: border-box; color: rgb(136, 0, 0);&quot;&gt;&#39;goo&#39;&lt;/span&gt;},&lt;/div&gt;&lt;/span&gt;&lt;span style=&quot;color: rgb(68, 68, 68); font-family: &amp;quot;Lucida Console&amp;quot;, Courier, monospace; white-space-collapse: preserve; background-color: rgb(243, 243, 243);&quot;&gt;&lt;div style=&quot;text-align: left;&quot;&gt;  ...&lt;/div&gt;&lt;div style=&quot;text-align: left;&quot;&gt;]&lt;/div&gt;&lt;div style=&quot;text-align: left;&quot;&gt;$cache = {&lt;/div&gt;&lt;div style=&quot;text-align: left;&quot;&gt;  &lt;/div&gt;&lt;/span&gt;&lt;span style=&quot;color: rgb(68, 68, 68); font-family: &amp;quot;Lucida Console&amp;quot;, Courier, monospace; white-space-collapse: preserve; background-color: rgb(243, 243, 243);&quot;&gt;&lt;div style=&quot;text-align: left;&quot;&gt;  ...&lt;/div&gt;&lt;/span&gt;&lt;span style=&quot;color: rgb(68, 68, 68); font-family: &amp;quot;Lucida Console&amp;quot;, Courier, monospace; white-space-collapse: preserve; background-color: rgb(243, 243, 243);&quot;&gt;&lt;div style=&quot;text-align: left;&quot;&gt;]&lt;/div&gt;&lt;/span&gt;&lt;/font&gt;&lt;span style=&quot;color: rgb(68, 68, 68); font-family: &amp;quot;Lucida Console&amp;quot;, Courier, monospace; white-space-collapse: preserve; background-color: rgb(243, 243, 243);&quot;&gt;&lt;div style=&quot;text-align: left;&quot;&gt;&lt;font&gt;$cache = {&lt;/font&gt;&lt;/div&gt;&lt;/span&gt;&lt;/font&gt;&lt;span style=&quot;color: rgb(68, 68, 68); font-family: &amp;quot;Lucida Console&amp;quot;, Courier, monospace; white-space-collapse: preserve; background-color: rgb(243, 243, 243);&quot;&gt;&lt;div style=&quot;text-align: left;&quot;&gt;&lt;font&gt;&lt;font style=&quot;background-color: transparent; color: light-dark(rgb(0, 0, 0), rgb(255, 255, 255)); font-family: Helvetica; white-space-collapse: collapse;&quot;&gt;&lt;span style=&quot;color: rgb(68, 68, 68); font-family: &amp;quot;Lucida Console&amp;quot;, Courier, monospace; white-space-collapse: preserve;&quot;&gt;  &lt;/span&gt;&lt;span style=&quot;box-sizing: border-box; font-family: &amp;quot;Lucida Console&amp;quot;, Courier, monospace; white-space-collapse: preserve; color: rgb(136, 0, 0);&quot;&gt;&#39;g&#39;&lt;/span&gt;&lt;span style=&quot;color: rgb(68, 68, 68); font-family: &amp;quot;Lucida Console&amp;quot;, Courier, monospace; white-space-collapse: preserve;&quot;&gt;: [&lt;/span&gt;&lt;span style=&quot;box-sizing: border-box; font-family: &amp;quot;Lucida Console&amp;quot;, Courier, monospace; white-space-collapse: preserve; color: rgb(136, 0, 0);&quot;&gt;1&lt;/span&gt;&lt;span style=&quot;color: rgb(68, 68, 68); font-family: &amp;quot;Lucida Console&amp;quot;, Courier, monospace; white-space-collapse: preserve;&quot;&gt;,&lt;/span&gt;&lt;span style=&quot;box-sizing: border-box; font-family: &amp;quot;Lucida Console&amp;quot;, Courier, monospace; white-space-collapse: preserve; color: rgb(136, 0, 0);&quot;&gt;2&lt;/span&gt;&lt;span style=&quot;color: rgb(68, 68, 68); font-family: &amp;quot;Lucida Console&amp;quot;, Courier, monospace; white-space-collapse: preserve;&quot;&gt;,&lt;/span&gt;&lt;span style=&quot;box-sizing: border-box; font-family: &amp;quot;Lucida Console&amp;quot;, Courier, monospace; white-space-collapse: preserve; color: rgb(136, 0, 0);&quot;&gt;3&lt;/span&gt;&lt;span style=&quot;color: rgb(68, 68, 68); font-family: &amp;quot;Lucida Console&amp;quot;, Courier, monospace; white-space-collapse: preserve;&quot;&gt;,&lt;/span&gt;&lt;/font&gt;&lt;span style=&quot;background-color: transparent; box-sizing: border-box; color: rgb(136, 0, 0);&quot;&gt;4&lt;/span&gt;&lt;span style=&quot;&quot;&gt;],&lt;/span&gt;&lt;/font&gt;&lt;/div&gt;&lt;/span&gt;&lt;/font&gt;&lt;font&gt;&lt;span style=&quot;color: rgb(68, 68, 68); font-family: &amp;quot;Lucida Console&amp;quot;, Courier, monospace; white-space-collapse: preserve; background-color: rgb(243, 243, 243);&quot;&gt;&lt;div style=&quot;text-align: left;&quot;&gt;&lt;span style=&quot;background-color: light-dark(rgb(243, 243, 243), rgb(28, 28, 28)); color: light-dark(rgb(68, 68, 68), rgb(179, 179, 179));&quot;&gt;  &lt;/span&gt;&lt;/div&gt;&lt;/span&gt;&lt;span style=&quot;color: rgb(68, 68, 68); font-family: &amp;quot;Lucida Console&amp;quot;, Courier, monospace; white-space-collapse: preserve; background-color: rgb(243, 243, 243);&quot;&gt;&lt;div style=&quot;text-align: left;&quot;&gt;&lt;span style=&quot;color: rgb(68, 68, 68); background-color: rgb(243, 243, 243);&quot;&gt;  &lt;/span&gt;&lt;span style=&quot;background-color: transparent; box-sizing: border-box; color: rgb(136, 0, 0);&quot;&gt;&#39;goo&#39;&lt;/span&gt;&lt;span style=&quot;color: rgb(68, 68, 68); background-color: rgb(243, 243, 243);&quot;&gt;: [&lt;/span&gt;&lt;span style=&quot;background-color: transparent; box-sizing: border-box; color: rgb(136, 0, 0);&quot;&gt;2&lt;/span&gt;&lt;span style=&quot;color: rgb(68, 68, 68); background-color: rgb(243, 243, 243);&quot;&gt;,&lt;/span&gt;&lt;span style=&quot;background-color: transparent; box-sizing: border-box; color: rgb(136, 0, 0);&quot;&gt;3&lt;/span&gt;&lt;span style=&quot;color: rgb(68, 68, 68); background-color: rgb(243, 243, 243);&quot;&gt;],&lt;/span&gt;&lt;/div&gt;&lt;/span&gt;&lt;span style=&quot;color: rgb(68, 68, 68); font-family: &amp;quot;Lucida Console&amp;quot;, Courier, monospace; white-space-collapse: preserve; background-color: rgb(243, 243, 243);&quot;&gt;&lt;div style=&quot;text-align: left;&quot;&gt;&lt;span style=&quot;background-color: light-dark(rgb(243, 243, 243), rgb(28, 28, 28)); color: light-dark(rgb(68, 68, 68), rgb(179, 179, 179));&quot;&gt;  ...&lt;/span&gt;&lt;/div&gt;&lt;div style=&quot;text-align: left;&quot;&gt;&lt;span style=&quot;background-color: light-dark(rgb(243, 243, 243), rgb(28, 28, 28)); color: light-dark(rgb(68, 68, 68), rgb(179, 179, 179));&quot;&gt;}&lt;/span&gt;&lt;/div&gt;&lt;/span&gt;&lt;span style=&quot;color: rgb(68, 68, 68); font-family: &amp;quot;Lucida Console&amp;quot;, Courier, monospace; white-space-collapse: preserve; background-color: rgb(243, 243, 243);&quot;&gt;&lt;div style=&quot;text-align: left;&quot;&gt;&lt;span style=&quot;background-color: light-dark(rgb(243, 243, 243), rgb(28, 28, 28)); color: light-dark(rgb(68, 68, 68), rgb(179, 179, 179));&quot;&gt;  ...&lt;/span&gt;&lt;/div&gt;&lt;/span&gt;&lt;span style=&quot;color: rgb(68, 68, 68); font-family: &amp;quot;Lucida Console&amp;quot;, Courier, monospace; white-space-collapse: preserve; background-color: rgb(243, 243, 243);&quot;&gt;&lt;div style=&quot;text-align: left;&quot;&gt;&lt;span style=&quot;background-color: light-dark(rgb(243, 243, 243), rgb(28, 28, 28)); color: light-dark(rgb(68, 68, 68), rgb(179, 179, 179));&quot;&gt;}&lt;/span&gt;&lt;/div&gt;&lt;/span&gt;&lt;/font&gt;&lt;/font&gt;&lt;/pre&gt;" style="text;html=1;align=center;verticalAlign=middle;resizable=0;points=[];autosize=1;strokeColor=#666666;fillColor=#f5f5f5;fontColor=#333333;rounded=1;" vertex="1" parent="1">
          <mxGeometry x="610" y="920" width="200" height="310" as="geometry" />
        </mxCell>
        <mxCell id="UEqxe5ACNQiHhb535YgH-45" value="&lt;span style=&quot;background-color: transparent; color: light-dark(rgb(0, 0, 0), rgb(255, 255, 255));&quot;&gt;B. Normalized list:&lt;/span&gt;&lt;br&gt;&lt;ul&gt;&lt;li&gt;&lt;span style=&quot;background-color: transparent; color: light-dark(rgb(0, 0, 0), rgb(255, 255, 255));&quot;&gt;good for long lived&lt;/span&gt;&lt;/li&gt;&lt;/ul&gt;" style="text;html=1;align=left;verticalAlign=middle;resizable=0;points=[];autosize=1;strokeColor=none;fillColor=none;" vertex="1" parent="1">
          <mxGeometry x="80" y="1070" width="160" height="70" as="geometry" />
        </mxCell>
        <mxCell id="UEqxe5ACNQiHhb535YgH-46" value="&lt;h3&gt;Styling&lt;/h3&gt;&lt;div&gt;&lt;ul&gt;&lt;li style=&quot;text-align: left;&quot;&gt;theming object&lt;/li&gt;&lt;li style=&quot;text-align: left;&quot;&gt;exposed classnames&lt;/li&gt;&lt;li style=&quot;text-align: left;&quot;&gt;render callback (flexible but HIGH effort)&lt;/li&gt;&lt;/ul&gt;&lt;/div&gt;" style="text;html=1;align=center;verticalAlign=middle;resizable=0;points=[];autosize=1;strokeColor=none;fillColor=none;" vertex="1" parent="1">
          <mxGeometry x="50" y="658" width="280" height="110" as="geometry" />
        </mxCell>
        <mxCell id="UEqxe5ACNQiHhb535YgH-47" value="&lt;h3&gt;Server API&lt;/h3&gt;&lt;div&gt;&lt;ul&gt;&lt;li style=&quot;text-align: left;&quot;&gt;query | limit | page number&lt;/li&gt;&lt;/ul&gt;&lt;/div&gt;" style="text;html=1;align=center;verticalAlign=middle;resizable=0;points=[];autosize=1;strokeColor=none;fillColor=none;" vertex="1" parent="1">
          <mxGeometry x="530" y="710" width="210" height="80" as="geometry" />
        </mxCell>
        <mxCell id="UEqxe5ACNQiHhb535YgH-48" value="Caching Strategy:&lt;div&gt;&lt;ul&gt;&lt;li&gt;TTL (needs timestamps)&lt;/li&gt;&lt;li&gt;periodically evict&lt;/li&gt;&lt;/ul&gt;&lt;/div&gt;" style="text;html=1;align=left;verticalAlign=middle;resizable=0;points=[];autosize=1;strokeColor=none;fillColor=none;" vertex="1" parent="1">
          <mxGeometry x="80" y="1160" width="190" height="80" as="geometry" />
        </mxCell>
        <mxCell id="UEqxe5ACNQiHhb535YgH-50" value="&lt;h3&gt;Performance:&lt;/h3&gt;&lt;h3&gt;&lt;span style=&quot;text-align: left; background-color: transparent; color: light-dark(rgb(0, 0, 0), rgb(255, 255, 255)); font-size: 12px; font-weight: normal;&quot;&gt;debounce | TTL + cache eviction | virtualized lists&lt;/span&gt;&lt;/h3&gt;" style="text;html=1;align=center;verticalAlign=middle;resizable=0;points=[];autosize=1;strokeColor=none;fillColor=none;" vertex="1" parent="1">
          <mxGeometry x="40" y="1260" width="280" height="90" as="geometry" />
        </mxCell>
        <mxCell id="UEqxe5ACNQiHhb535YgH-51" value="&lt;h3&gt;A18N:&lt;/h3&gt;&lt;div&gt;&lt;ul&gt;&lt;li style=&quot;text-align: left;&quot;&gt;aria roles:&lt;/li&gt;&lt;ul&gt;&lt;li style=&quot;text-align: left;&quot;&gt;aria-autocomplete&lt;/li&gt;&lt;li style=&quot;text-align: left;&quot;&gt;combobox for input&lt;/li&gt;&lt;li style=&quot;text-align: left;&quot;&gt;aria-expanded&lt;/li&gt;&lt;li style=&quot;text-align: left;&quot;&gt;aria-live&lt;/li&gt;&lt;/ul&gt;&lt;li style=&quot;text-align: left;&quot;&gt;keyboard:&lt;/li&gt;&lt;ul&gt;&lt;li style=&quot;text-align: left;&quot;&gt;arrows&lt;/li&gt;&lt;li style=&quot;text-align: left;&quot;&gt;Enter&lt;/li&gt;&lt;li style=&quot;text-align: left;&quot;&gt;Escape&lt;/li&gt;&lt;/ul&gt;&lt;/ul&gt;&lt;/div&gt;&lt;div&gt;&lt;br&gt;&lt;/div&gt;" style="text;html=1;align=center;verticalAlign=middle;resizable=0;points=[];autosize=1;strokeColor=none;fillColor=none;" vertex="1" parent="1">
          <mxGeometry x="345" y="1170" width="210" height="210" as="geometry" />
        </mxCell>
      </root>
    </mxGraphModel>
  </diagram>
</mxfile>
